<svg width="86" height="24" viewBox="0 0 86 24" fill="none" xmlns="http://www.w3.org/2000/svg">
<path d="M5 24H0V7H5V24Z" fill="url(#paint0_linear_2_26)"/>
<path fill-rule="evenodd" clip-rule="evenodd" d="M0 5C2.76142 5 5 2.76142 5 0H0V5Z" fill="url(#paint1_linear_2_26)"/>
<path fill-rule="evenodd" clip-rule="evenodd" d="M12.9988 9.03896L17.6145 21.2493H22.2902L26.9359 8.89029V23.6622H32.0612V0H25.3774L19.9824 14.4802L14.5574 0H7.87354V23.6622H12.9988V9.03896ZM42.948 23.9662C37.2953 23.9662 33.5155 20.1828 33.5155 14.5414C33.5155 9.10263 37.4655 5.15026 42.9139 5.15026C48.9752 5.15026 53.0274 10.0485 51.9718 16.0277H39.5427C39.8492 18.3248 40.9389 19.4734 42.8117 19.4734C44.4463 19.4734 45.5155 18.9084 46.0262 17.591H51.8492C50.7255 21.746 47.511 23.9662 42.948 23.9662ZM42.7777 9.40665C41.041 9.40665 40.0195 10.3863 39.6108 12.4132H45.7402C45.6721 10.589 44.5144 9.40665 42.7777 9.40665ZM66.9187 17.987V23.0204C65.6247 23.7298 64.3988 24 62.7643 24C58.6439 24 56.2262 21.5678 56.2262 17.4127V11.8829H52.821V6.84958H56.2262L62.0492 6.84958L67.0549 6.84958V11.8829H62.0492V16.0615C62.0492 17.8181 62.7983 18.6288 64.3988 18.6288C65.3523 18.6288 66.2717 18.3924 66.9187 17.987ZM80.6983 21.5696C79.4044 23.0173 77.4839 24 75.1391 24C71.3252 24 68.7713 21.7367 68.7713 18.291C68.7713 14.744 71.6658 12.8185 76.9098 12.8185C77.8974 12.8185 78.8168 12.8861 79.6 13.0212V12.1429C79.6 10.5552 78.6531 9.57385 77.0186 9.57385C75.4181 9.57385 74.5423 10.2952 74.338 11.8829H69.094C69.4345 7.66032 72.5511 5.15026 77.0801 5.15026C82.1198 5.15026 85.0824 7.85273 85.0824 12.4469V18.2137H85.0909V23.6618C85.0691 23.6621 85.0473 23.6622 85.0254 23.6622C83.2681 23.6622 81.7036 22.8435 80.6983 21.5696ZM76.5012 20.0139C75.071 20.0139 74.2537 19.3045 74.2537 18.1221C74.2537 16.8722 75.3094 16.2304 77.2844 16.2304C78.0336 16.2304 78.7146 16.298 79.6 16.4669V17.6154C79.6 19.1018 78.4422 20.0139 76.5012 20.0139ZM61.954 5.75988C58.7473 5.75988 56.1478 3.18109 56.1478 0H62.0232V5.75948C62.0002 5.75974 61.9771 5.75988 61.954 5.75988Z" fill="url(#paint2_linear_2_26)"/>
<defs>
<linearGradient id="paint0_linear_2_26" x1="2.74245e-06" y1="10.3553" x2="13.3186" y2="13.8849" gradientUnits="userSpaceOnUse">
<stop stop-color="#18B9DD"/>
<stop offset="0.481238" stop-color="#6158FA"/>
<stop offset="1" stop-color="#E8A6F4"/>
</linearGradient>
<linearGradient id="paint1_linear_2_26" x1="-6" y1="1.82958e-07" x2="5" y2="-1.52465e-07" gradientUnits="userSpaceOnUse">
<stop stop-color="#18B9DD"/>
<stop offset="0.481238" stop-color="#6158FA"/>
<stop offset="1" stop-color="#E8A6F4"/>
</linearGradient>
<linearGradient id="paint2_linear_2_26" x1="9.93392" y1="2.10158" x2="87.948" y2="18.9363" gradientUnits="userSpaceOnUse">
<stop stop-color="white"/>
<stop offset="1" stop-color="#DBBAFF"/>
</linearGradient>
</defs>
</svg>
