<svg width="144" height="38" viewBox="0 0 144 38" fill="none" xmlns="http://www.w3.org/2000/svg">
<path d="M61.0212 23.8187C60.8849 25.0241 60.3669 25.9675 59.4945 26.6488C58.6222 27.3302 57.559 27.6447 56.3049 27.6447C54.5874 27.6447 53.1971 27.1205 52.1066 26.0461C51.0162 24.9979 50.4709 23.5304 50.4709 21.6698C50.4709 19.8878 51.0162 18.4465 52.1339 17.3459C53.2243 16.2453 54.5874 15.6688 56.1959 15.6688C57.4226 15.6688 58.4313 15.957 59.2492 16.5335C60.067 17.1101 60.5577 17.87 60.7758 18.8134H65.0014C64.7833 16.717 63.8837 15.066 62.248 13.8344C60.6123 12.6289 58.5949 12 56.2231 12C53.3061 12 50.8798 12.9172 48.917 14.7254C46.9542 16.5335 46 18.9182 46 21.8532C46 24.7096 46.9814 26.9895 48.9443 28.7191C50.9071 30.4486 53.3879 31.2872 56.3867 31.2872C58.7857 31.2872 60.8304 30.6321 62.5751 29.2956C64.2926 27.9853 65.2195 26.1509 65.3831 23.8187H61.0212Z" fill="white"/>
<path d="M73.3712 21.434C74.4889 21.434 75.1704 21.9843 75.4158 23.0849H71.2175C71.5719 21.9843 72.2807 21.434 73.3712 21.434ZM75.443 26.8585C75.2795 27.6447 74.6252 28.0115 73.4257 28.0115C72.6078 28.0115 71.9808 27.8019 71.5174 27.3826C71.0539 26.9633 70.8358 26.282 70.8631 25.391H79.8594V24.8145C79.8594 22.8229 79.2597 21.1981 78.1147 19.9665C76.9697 18.761 75.3885 18.1321 73.3984 18.1321C71.3811 18.1321 69.7454 18.761 68.5458 20.0189C67.3463 21.2767 66.7466 22.8491 66.7466 24.7621C66.7466 26.8061 67.3191 28.4046 68.4641 29.5577C69.609 30.7107 71.2993 31.2872 73.4802 31.2872C75.0069 31.2872 76.3427 30.9203 77.5422 30.1866C78.7145 29.4528 79.3687 28.326 79.505 26.8585H75.443Z" fill="white"/>
<path d="M92.4002 30.9465H95.4535V18.4727H92.5638L92.1549 19.6258C91.7187 19.1017 91.1462 18.7086 90.4101 18.4465C89.6468 18.1845 88.938 18.0535 88.2292 18.0535C86.2118 18.0535 84.6034 18.7086 83.3494 19.9665C82.0953 21.2243 81.4956 22.7966 81.4956 24.6834C81.4956 26.6751 82.0681 28.2474 83.2676 29.4528C84.4398 30.6583 86.0483 31.261 88.0656 31.261C89.7286 31.261 91.0372 30.7893 91.9913 29.7935L92.4002 30.9465ZM88.5563 21.434C89.456 21.434 90.1648 21.7484 90.71 22.3774C91.2552 23.0063 91.5279 23.7925 91.5279 24.7096C91.5279 25.653 91.2553 26.4392 90.7645 27.0419C90.2738 27.6447 89.5378 27.9329 88.5836 27.9329C87.6567 27.9329 86.9479 27.6184 86.4299 26.9633C85.8847 26.3344 85.6393 25.5482 85.6393 24.6048C85.6393 23.7662 85.8847 23.0063 86.4299 22.3774C86.9752 21.7484 87.684 21.434 88.5563 21.434Z" fill="white"/>
<path d="M97.499 33.2264C97.499 34.4319 98.0988 35.3491 99.3256 36.0042C100.552 36.6855 102.161 37 104.124 37C105.977 37 107.613 36.6069 109.058 35.7945C110.476 35.0084 111.212 33.934 111.212 32.5713C111.212 29.9507 108.785 28.6143 103.987 28.6143C103.388 28.6143 102.297 28.6929 100.743 28.8501C101.016 28.2736 101.425 27.7757 101.943 27.3564C102.57 27.6184 103.415 27.7495 104.451 27.7495C106.059 27.7495 107.422 27.304 108.513 26.3606C109.603 25.4434 110.176 24.3166 110.176 22.9539C110.176 22.2987 110.067 21.696 109.849 21.1719L111.43 20.9099V18.4727H106.713C105.923 18.2107 105.16 18.0797 104.451 18.0797C102.761 18.0797 101.343 18.5514 100.225 19.4686C99.1075 20.412 98.5622 21.565 98.5622 22.9277C98.5622 24.0545 98.8894 25.0241 99.5982 25.8103C98.5077 26.5964 97.7171 27.3826 97.2809 28.1164C96.8175 28.8501 96.5994 29.479 96.5994 30.0031C96.5994 30.37 96.7357 30.6845 97.0083 30.9465C97.2809 31.2086 97.6626 31.392 98.1806 31.4444C97.7171 31.9686 97.499 32.5713 97.499 33.2264ZM101.261 32.6237C101.261 32.2568 101.425 31.8375 101.806 31.4182C102.461 31.3658 102.979 31.3134 103.388 31.3134C105.868 31.3134 107.122 31.6803 107.122 32.414C107.122 32.8595 106.823 33.2002 106.223 33.4099C105.623 33.6457 104.941 33.7505 104.151 33.7505C103.36 33.7505 102.679 33.6719 102.106 33.4623C101.534 33.2788 101.261 32.9906 101.261 32.6237ZM104.451 21.1195C104.996 21.1195 105.432 21.3029 105.814 21.6698C106.168 22.0367 106.359 22.456 106.359 22.9277C106.359 23.4518 106.168 23.8711 105.841 24.2117C105.514 24.5786 105.051 24.7359 104.451 24.7359C103.796 24.7359 103.306 24.5786 102.924 24.2117C102.542 23.8711 102.379 23.4518 102.379 22.9277C102.379 22.456 102.57 22.0367 102.951 21.6698C103.333 21.3029 103.851 21.1195 104.451 21.1195Z" fill="white"/>
<path d="M117.217 30.9465V12.3407H113.346V30.9465H117.217Z" fill="white"/>
<path d="M125.216 21.434C126.334 21.434 127.016 21.9843 127.261 23.0849H123.063C123.417 21.9843 124.126 21.434 125.216 21.434ZM127.288 26.8585C127.125 27.6447 126.47 28.0115 125.271 28.0115C124.453 28.0115 123.826 27.8019 123.362 27.3826C122.899 26.9633 122.681 26.282 122.708 25.391H131.705V24.8145C131.705 22.8229 131.105 21.1981 129.96 19.9665C128.815 18.761 127.234 18.1321 125.244 18.1321C123.226 18.1321 121.59 18.761 120.391 20.0189C119.191 21.2767 118.592 22.8491 118.592 24.7621C118.592 26.8061 119.164 28.4046 120.309 29.5577C121.454 30.7107 123.144 31.2872 125.325 31.2872C126.852 31.2872 128.188 30.9203 129.387 30.1866C130.56 29.4528 131.214 28.326 131.35 26.8585H127.288Z" fill="white"/>
<path d="M139.883 22.4036H143.564V22.1939C143.564 20.8836 143.073 19.8878 142.092 19.1541C141.11 18.4465 139.911 18.0797 138.466 18.0797C136.994 18.0797 135.794 18.4465 134.867 19.1541C133.94 19.8616 133.504 20.805 133.504 22.0105C133.504 22.587 133.613 23.1111 133.859 23.5566C134.077 24.0021 134.431 24.369 134.895 24.631C135.331 24.9193 135.767 25.1289 136.149 25.2862C136.53 25.4434 137.021 25.6006 137.621 25.7579C138.057 25.9151 138.357 25.9937 138.52 26.0461C138.684 26.0985 138.929 26.2034 139.229 26.3344C139.502 26.4654 139.72 26.5964 139.829 26.7275C139.938 26.8847 139.993 27.0419 139.993 27.2254C139.993 27.5398 139.856 27.8019 139.611 28.0377C139.366 28.2736 139.011 28.3784 138.52 28.3784C138.03 28.3784 137.621 28.2736 137.294 28.0115C136.966 27.7757 136.803 27.435 136.803 26.9895V26.5702H133.123V26.8847C133.123 28.326 133.641 29.4266 134.731 30.1866C135.794 30.9465 137.13 31.3134 138.711 31.3134C140.238 31.3134 141.519 30.9203 142.501 30.1342C143.482 29.348 144 28.326 144 27.0681C144 26.5178 143.891 26.0199 143.673 25.5482C143.455 25.1027 143.237 24.7358 142.964 24.4738C142.691 24.2117 142.337 23.9497 141.846 23.7138C141.356 23.478 140.974 23.2945 140.674 23.1897C140.347 23.0849 139.938 22.9801 139.42 22.8229C138.793 22.6656 138.33 22.5084 138.03 22.3512C137.703 22.1939 137.566 22.0105 137.566 21.8008C137.566 21.5912 137.648 21.3816 137.839 21.1981C138.002 21.0409 138.275 20.9361 138.629 20.9361C139.038 20.9361 139.338 21.0671 139.556 21.2767C139.774 21.5126 139.883 21.7746 139.883 22.0891V22.4036Z" fill="white"/>
<path fill-rule="evenodd" clip-rule="evenodd" d="M16.3007 9.44398C23.6697 14.6382 30.4416 19.4168 31.3494 20.0632L33 21.2384L32.9997 21.3703C32.9992 21.6526 32.956 22.9147 32.9343 23.2808C32.7737 25.9998 32.3065 27.9805 31.3978 29.795C31.1011 30.3875 30.9225 30.695 30.5701 31.22C29.9494 32.1449 29.2833 32.9294 28.3866 33.7915C25.9739 36.111 22.8685 37.5545 19.5156 37.9149C18.4601 38.0284 17.2747 38.0283 16.2235 37.9148C12.7384 37.5382 9.56388 36.0151 7.08842 33.5317C4.71072 31.1463 3.32542 28.448 2.92579 25.4236C2.83067 24.7038 2.82156 24.5 2.81083 22.8576L2.80038 21.2558H7.8514C11.0126 21.2558 12.8997 21.2482 12.8951 21.2355C12.8834 21.2028 8.5731 18.2286 8.56615 18.2485C8.56266 18.2584 8.52714 18.3596 8.48725 18.4735C8.07988 19.6349 6.65583 20.076 5.62733 19.3592C4.84524 18.8142 4.62227 17.7427 5.11942 16.9186C5.22518 16.7433 5.49018 16.4639 5.64066 16.369C5.69957 16.3318 5.74762 16.2952 5.74742 16.2875C5.7472 16.2799 5.10481 15.8301 4.31986 15.288L2.89267 14.3023L2.89221 11.4459L0 6.51961L3.15883 8.77027C3.95041 9.30577 21.656 21.2404 21.6766 21.2524C21.694 21.2625 21.719 22.4234 21.7649 25.3486C21.8001 27.5938 21.8281 29.4326 21.8271 29.4349C21.8261 29.4372 20.7317 28.6491 19.395 27.6836L16.9648 25.9281L12.4028 25.9276C9.89366 25.9274 7.84076 25.9352 7.84076 25.945C7.84076 25.9879 7.99815 26.5175 8.07905 26.7467C8.52117 27.9994 9.37406 29.2182 10.6731 30.4536C12.9309 32.601 15.9626 33.6161 19.0687 33.2647C22.4799 32.8788 25.4847 30.8244 27.058 27.8021C27.6488 26.6673 28.0189 25.4192 28.1384 24.1593C28.1651 23.8778 28.1968 23.2089 28.1858 23.1609C28.182 23.1443 22.5121 19.2255 15.586 14.4523C8.65998 9.67914 2.97018 5.75454 2.94203 5.73097L2.89086 5.68811C2.89086 5.68811 2.89447 3.95473 2.89677 2.84405C2.89907 1.73338 2.90266 0 2.90266 0L16.3007 9.44398Z" fill="url(#paint0_linear_26_29)"/>
<defs>
<linearGradient id="paint0_linear_26_29" x1="9.43733" y1="-10.0588" x2="38.9199" y2="-6.37633" gradientUnits="userSpaceOnUse">
<stop stop-color="#00B2FF"/>
<stop offset="0.947917" stop-color="#7F00E2"/>
</linearGradient>
</defs>
</svg>
