<svg width="587" height="351" viewBox="0 0 587 351" fill="none" xmlns="http://www.w3.org/2000/svg">
<path d="M165.344 127.482C165.344 134.704 166.125 140.56 167.491 144.855C169.053 149.149 171.005 153.834 173.738 158.909C174.714 160.47 175.104 162.032 175.104 163.398C175.104 165.35 173.933 167.302 171.395 169.254L159.097 177.452C157.34 178.624 155.583 179.209 154.021 179.209C152.069 179.209 150.117 178.233 148.165 176.476C145.432 173.548 143.09 170.425 141.138 167.302C139.185 163.984 137.233 160.275 135.086 155.786C119.86 173.744 100.729 182.723 77.6939 182.723C61.2962 182.723 48.217 178.038 38.6517 168.669C29.0863 159.299 24.2061 146.806 24.2061 131.191C24.2061 114.599 30.0624 101.13 41.9703 90.9802C53.8782 80.83 69.6903 75.7549 89.797 75.7549C96.4342 75.7549 103.267 76.3405 110.489 77.3164C117.712 78.2924 125.13 79.854 132.939 81.6108V67.3614C132.939 52.5265 129.815 42.181 123.764 36.1299C117.517 30.0788 106.976 27.1509 91.9443 27.1509C85.1119 27.1509 78.0843 27.9317 70.8615 29.6885C63.6387 31.4452 56.6111 33.5924 49.7787 36.3251C46.6553 37.6915 44.3128 38.4723 42.9463 38.8627C41.5798 39.2531 40.6038 39.4483 39.8229 39.4483C37.09 39.4483 35.7235 37.4963 35.7235 33.3972V23.8326C35.7235 20.7094 36.1139 18.367 37.09 17.0007C38.066 15.6343 39.8229 14.2679 42.5559 12.9015C49.3883 9.388 57.5872 6.46005 67.1525 4.11769C76.7179 1.58013 86.8688 0.408948 97.6055 0.408948C120.836 0.408948 137.819 5.67926 148.751 16.2199C159.487 26.7605 164.953 42.7666 164.953 64.2383V127.482H165.344ZM86.088 157.152C92.53 157.152 99.1671 155.981 106.195 153.638C113.222 151.296 119.469 147.002 124.74 141.146C127.863 137.437 130.206 133.338 131.377 128.653C132.548 123.968 133.329 118.308 133.329 111.671V103.473C127.668 102.106 121.616 100.935 115.37 100.154C109.123 99.3737 103.071 98.9833 97.0198 98.9833C83.9407 98.9833 74.3753 101.521 67.9334 106.791C61.4914 112.061 58.368 119.479 58.368 129.239C58.368 138.413 60.7105 145.245 65.5908 149.93C70.2759 154.81 77.1083 157.152 86.088 157.152ZM242.843 178.233C239.329 178.233 236.986 177.648 235.425 176.281C233.863 175.11 232.496 172.377 231.325 168.669L185.45 17.7815C184.279 13.8775 183.694 11.34 183.694 9.97359C183.694 6.85044 185.255 5.09367 188.379 5.09367H207.509C211.218 5.09367 213.756 5.67926 215.123 7.04564C216.684 8.21682 217.856 10.9496 219.027 14.6583L251.822 143.879L282.275 14.6583C283.251 10.7544 284.423 8.21682 285.984 7.04564C287.546 5.87446 290.279 5.09367 293.793 5.09367H309.41C313.119 5.09367 315.656 5.67926 317.218 7.04564C318.78 8.21682 320.146 10.9496 320.927 14.6583L351.77 145.44L385.542 14.6583C386.713 10.7544 388.08 8.21682 389.446 7.04564C391.008 5.87446 393.546 5.09367 397.059 5.09367H415.214C418.337 5.09367 420.094 6.65524 420.094 9.97359C420.094 10.9496 419.899 11.9256 419.704 13.0967C419.509 14.2679 419.118 15.8295 418.337 17.9767L371.292 168.864C370.12 172.768 368.754 175.305 367.192 176.476C365.63 177.648 363.093 178.428 359.774 178.428H342.986C339.277 178.428 336.739 177.843 335.177 176.476C333.616 175.11 332.249 172.572 331.468 168.669L301.211 42.7666L271.148 168.473C270.172 172.377 269.001 174.915 267.439 176.281C265.877 177.648 263.145 178.233 259.631 178.233H242.843ZM493.689 183.503C483.538 183.503 473.387 182.332 463.626 179.99C453.866 177.648 446.253 175.11 441.177 172.182C438.054 170.425 435.906 168.473 435.126 166.717C434.345 164.96 433.954 163.008 433.954 161.251V151.296C433.954 147.197 435.516 145.245 438.444 145.245C439.615 145.245 440.787 145.44 441.958 145.83C443.129 146.221 444.886 147.002 446.838 147.782C453.475 150.71 460.698 153.053 468.311 154.614C476.12 156.176 483.733 156.957 491.542 156.957C503.84 156.957 513.405 154.81 520.042 150.515C526.68 146.221 530.193 139.975 530.193 131.972C530.193 126.506 528.437 122.016 524.923 118.308C521.409 114.599 514.772 111.281 505.206 108.158L476.901 99.3737C462.65 94.8842 452.109 88.2475 445.667 79.4636C439.225 70.875 435.906 61.3103 435.906 51.1601C435.906 42.9618 437.663 35.7396 441.177 29.4933C444.691 23.247 449.376 17.7815 455.232 13.4871C461.089 8.9976 467.726 5.67926 475.534 3.3369C483.343 0.994538 491.542 0.0185547 500.131 0.0185547C504.426 0.0185547 508.915 0.213751 513.21 0.799342C517.7 1.38493 521.799 2.16572 525.899 2.94651C529.803 3.92249 533.512 4.89847 537.026 6.06965C540.54 7.24083 543.273 8.41201 545.225 9.58319C547.958 11.1448 549.91 12.7063 551.081 14.4631C552.252 16.0247 552.838 18.1718 552.838 20.9046V30.0788C552.838 34.178 551.276 36.3251 548.348 36.3251C546.786 36.3251 544.249 35.5444 540.93 33.9828C529.803 28.9077 517.309 26.3701 503.449 26.3701C492.322 26.3701 483.538 28.1269 477.486 31.8356C471.435 35.5444 468.311 41.2051 468.311 49.2081C468.311 54.6736 470.264 59.3584 474.168 63.0671C478.072 66.7758 485.295 70.4846 495.641 73.8029L523.361 82.5868C537.416 87.0763 547.567 93.3226 553.619 101.326C559.67 109.329 562.599 118.503 562.599 128.653C562.599 137.047 560.842 144.659 557.523 151.296C554.009 157.933 549.324 163.789 543.273 168.473C537.221 173.353 529.998 176.867 521.604 179.404C512.82 182.137 503.645 183.503 493.689 183.503Z" fill="#908A8A"/>
<path d="M530.584 278.369C466.36 325.802 373.049 350.982 292.817 350.982C180.375 350.982 79.0605 309.405 2.53775 240.306C-3.5138 234.84 1.95211 227.423 9.17493 231.717C91.9445 279.736 194.04 308.82 299.649 308.82C370.901 308.82 449.181 293.985 521.214 263.534C531.951 258.654 541.125 270.561 530.584 278.369Z" fill="#FF9900"/>
<path d="M557.328 247.918C549.129 237.377 503.059 242.843 482.172 245.38C475.925 246.161 474.949 240.696 480.61 236.596C517.31 210.83 577.63 218.248 584.658 226.837C591.685 235.62 582.706 295.936 548.348 324.825C543.078 329.315 538.002 326.972 540.345 321.117C548.153 301.792 565.527 258.263 557.328 247.918Z" fill="#FF9900"/>
</svg>
