<svg width="22" height="23" viewBox="0 0 22 23" fill="none" xmlns="http://www.w3.org/2000/svg">
<path d="M9.67827 12.4334L0.484081 2.91916C-0.161362 2.25124 -0.161362 1.16885 0.484081 0.500935C1.12952 -0.166978 2.17551 -0.166978 2.82095 0.500935L11 8.96471L19.179 0.500935C19.8245 -0.166978 20.8705 -0.166978 21.5159 0.500935C22.1614 1.16885 22.1614 2.25124 21.5159 2.91916L12.3217 12.4334C11.5917 13.1889 10.4083 13.1889 9.67827 12.4334Z" fill="#7693AF"/>
<path d="M9.67827 10.5666L0.484081 20.0808C-0.161362 20.7488 -0.161362 21.8312 0.484081 22.4991C1.12952 23.167 2.17551 23.167 2.82095 22.4991L11 14.0353L19.179 22.4991C19.8245 23.167 20.8705 23.167 21.5159 22.4991C22.1614 21.8312 22.1614 20.7488 21.5159 20.0808L12.3217 10.5666C11.5917 9.81114 10.4083 9.81114 9.67827 10.5666Z" fill="#7693AF"/>
</svg>
