<svg width="17" height="13" viewBox="0 0 17 13" fill="none" xmlns="http://www.w3.org/2000/svg">
<path d="M2.96429 12.4786H14.0357C15.118 12.4786 16.05 11.5086 16.05 10.4286V3C16.05 1.91998 15.118 0.95 14.0357 0.95H3.14286C2.60166 0.95 2.05433 1.19267 1.64265 1.56796C1.23099 1.94324 0.95 2.45582 0.95 3V10.4107C0.95 11.5083 1.88167 12.4786 2.96429 12.4786ZM14.0357 11.3071H3.14286C3.07105 11.3071 2.94817 11.2782 2.82334 11.2381C2.73324 11.2092 2.64692 11.1759 2.58422 11.1472L6.14286 7.58857L7.33964 8.78536C7.65291 9.09862 8.07648 9.26429 8.5 9.26429C8.92353 9.26429 9.34709 9.09862 9.66036 8.78536L10.8571 7.58857L14.419 11.1504C14.4157 11.1524 14.4123 11.1544 14.409 11.1564C14.3619 11.1845 14.3121 11.2144 14.2589 11.241C14.1806 11.2801 14.1043 11.3071 14.0357 11.3071ZM11.6956 6.76776L14.8786 3.5676V9.95072L11.6956 6.76776ZM2.96429 2.12143H14.0357C14.1131 2.12143 14.2028 2.15287 14.2919 2.19852C14.3588 2.23276 14.4223 2.27342 14.4762 2.31037L8.83964 7.96464C8.83963 7.96466 8.83961 7.96468 8.83959 7.9647C8.66268 8.14155 8.3551 8.14153 8.17821 7.96464L2.52389 2.31032C2.57772 2.27338 2.64124 2.23275 2.70806 2.19852C2.7972 2.15287 2.88689 2.12143 2.96429 2.12143ZM5.30438 6.7501L2.12143 9.95026V3.56714L5.30438 6.7501Z" fill="white" stroke="white" stroke-width="0.1"/>
</svg>
