<svg width="18" height="23" viewBox="0 0 18 23" fill="none" xmlns="http://www.w3.org/2000/svg">
<path d="M11.9453 15.9713C11.8063 16.0606 11.6468 16.1079 11.4838 16.1079C11.1714 16.1079 10.8876 15.9423 10.725 15.6654L6.71624 8.82876C6.59242 8.6186 6.55464 8.36922 6.60997 8.12762C6.66496 7.88566 6.80632 7.68115 7.00774 7.55187L9.61605 5.87548L6.1707 0L3.56239 1.67674C1.86401 2.76819 0.672712 4.4898 0.208136 6.5247C-0.256102 8.55961 0.0620494 10.6588 1.10456 12.4352L5.11401 19.2721C6.48311 21.6055 8.86807 23 11.4943 23C12.8687 23 14.2166 22.6009 15.3924 21.8457L18 20.1689L14.554 14.2942L11.9453 15.9713Z" fill="#236DD5"/>
</svg>
